<svg width="21" height="24" viewBox="0 0 21 24" fill="none" xmlns="http://www.w3.org/2000/svg">
<path d="M19.8333 3.5C20.1428 3.5 20.4395 3.62292 20.6583 3.84171C20.8771 4.0605 21 4.35725 21 4.66667C21 4.97609 20.8771 5.27283 20.6583 5.49162C20.4395 5.71042 20.1428 5.83333 19.8333 5.83333H18.6667L18.6632 5.91617L17.5747 21.1657C17.5328 21.7543 17.2693 22.3053 16.8375 22.7075C16.4056 23.1097 15.8373 23.3333 15.2472 23.3333H5.75167C5.1615 23.3333 4.59324 23.1097 4.16137 22.7075C3.72949 22.3053 3.46607 21.7543 3.42417 21.1657L2.33567 5.91733L2.33333 5.83333H1.16667C0.857247 5.83333 0.560501 5.71042 0.341709 5.49162C0.122916 5.27283 0 4.97609 0 4.66667C0 4.35725 0.122916 4.0605 0.341709 3.84171C0.560501 3.62292 0.857247 3.5 1.16667 3.5H19.8333ZM12.8333 0C13.1428 0 13.4395 0.122916 13.6583 0.341709C13.8771 0.560501 14 0.857247 14 1.16667C14 1.47609 13.8771 1.77283 13.6583 1.99162C13.4395 2.21042 13.1428 2.33333 12.8333 2.33333H8.16667C7.85725 2.33333 7.5605 2.21042 7.34171 1.99162C7.12292 1.77283 7 1.47609 7 1.16667C7 0.857247 7.12292 0.560501 7.34171 0.341709C7.5605 0.122916 7.85725 0 8.16667 0H12.8333Z" fill="#8F9591"/>
</svg>
