<svg width="30" height="30" viewBox="0 0 30 30" fill="none" xmlns="http://www.w3.org/2000/svg">
<path d="M17.0449 0.138953C13.4564 -0.352699 9.81106 0.469894 6.78156 2.45496C3.75207 4.44003 1.54282 7.45362 0.561405 10.9397C-0.420006 14.4258 -0.107345 18.1492 1.4417 21.4229C2.99075 24.6965 5.67165 27.2996 8.98977 28.7518C8.90059 27.6 8.9825 26.4414 9.23282 25.3136C9.51038 24.055 11.1772 17.1185 11.1772 17.1185C10.8435 16.3752 10.6775 15.5676 10.6911 14.7529C10.6911 12.5253 11.9769 10.8631 13.5762 10.8631C13.8635 10.859 14.1484 10.9167 14.4114 11.0324C14.6744 11.1481 14.9094 11.3191 15.1004 11.5337C15.2915 11.7483 15.434 12.0016 15.5184 12.2762C15.6028 12.5509 15.6271 12.8404 15.5896 13.1253C15.5896 14.4754 14.7224 16.5185 14.2693 18.4356C14.1798 18.7872 14.1741 19.1549 14.2527 19.5091C14.3314 19.8633 14.4921 20.1941 14.7221 20.4748C14.952 20.7555 15.2446 20.9782 15.5764 21.1251C15.9082 21.2719 16.2699 21.3388 16.6323 21.3203C19.4784 21.3203 21.3883 17.6736 21.3883 13.3683C21.3883 10.0666 19.2023 7.59743 15.1725 7.59743C14.2085 7.55998 13.247 7.71879 12.3462 8.06421C11.4455 8.40964 10.6243 8.93448 9.93259 9.60688C9.24088 10.2793 8.69304 11.0852 8.32232 11.9757C7.95161 12.8663 7.76575 13.8229 7.77603 14.7874C7.73307 15.8575 8.07835 16.907 8.74823 17.7426C8.8734 17.836 8.9648 17.9676 9.00864 18.1175C9.05248 18.2674 9.04638 18.4275 8.99127 18.5736C8.92226 18.8497 8.74823 19.5082 8.67921 19.7512C8.66466 19.833 8.63112 19.9102 8.5813 19.9767C8.53148 20.0431 8.46676 20.097 8.39235 20.1339C8.31793 20.1708 8.23589 20.1897 8.15283 20.1892C8.06976 20.1886 7.98798 20.1686 7.91406 20.1307C5.83764 19.2997 4.85945 17.015 4.85945 14.4064C4.85945 10.1356 8.43616 5.02327 15.5926 5.02327C21.2877 5.02327 25.073 9.18904 25.073 13.6443C25.073 19.5082 21.8083 23.917 16.9819 23.917C16.2605 23.9402 15.5449 23.7811 14.9014 23.4543C14.2578 23.1276 13.7071 22.6439 13.3001 22.0479C13.3001 22.0479 12.4315 25.5221 12.2619 26.1791C11.9133 27.3145 11.3981 28.3918 10.7331 29.3758C12.1179 29.7959 13.5567 30.0059 15.003 29.9999C16.9735 30.0011 18.9249 29.6137 20.7456 28.86C22.5662 28.1063 24.2203 27.001 25.6133 25.6074C27.0062 24.2138 28.1107 22.5592 28.8634 20.7384C29.6161 18.9176 30.0024 16.9662 30 14.9959C29.9991 11.3727 28.6868 7.87231 26.3054 5.14137C23.9241 2.41042 20.6346 0.633516 17.0449 0.138953Z" fill="white"/>
</svg>
