<svg width="35" height="28" viewBox="0 0 35 28" fill="none" xmlns="http://www.w3.org/2000/svg">
<path fill-rule="evenodd" clip-rule="evenodd" d="M31.1111 3.11111H9.33333V0H34.2222V21.7778H31.1111V3.11111ZM24.8889 9.33333H3.11111V24.8889H24.8889V9.33333ZM0 6.22222V28H28V6.22222H0ZM21.7778 14.7778C21.7778 15.3966 21.5319 15.9901 21.0944 16.4277C20.6568 16.8653 20.0633 17.1111 19.4444 17.1111C18.8256 17.1111 18.2321 16.8653 17.7945 16.4277C17.3569 15.9901 17.1111 15.3966 17.1111 14.7778C17.1111 14.1589 17.3569 13.5654 17.7945 13.1279C18.2321 12.6903 18.8256 12.4444 19.4444 12.4444C20.0633 12.4444 20.6568 12.6903 21.0944 13.1279C21.5319 13.5654 21.7778 14.1589 21.7778 14.7778Z" fill="white"/>
<path fill-rule="evenodd" clip-rule="evenodd" d="M9.95553 18.3991L3.46575 24.8889H3.11108V20.8444L9.95553 14L20.8444 24.8889H16.4422L9.95553 18.3991Z" fill="white"/>
</svg>
