<svg width="21" height="21" viewBox="0 0 21 21" fill="none" xmlns="http://www.w3.org/2000/svg">
<path d="M6.10448 1H3.26866C2.01571 1 1 2.01571 1 3.26866V6.10448C1 7.35742 2.01571 8.37313 3.26866 8.37313H6.10448C7.35742 8.37313 8.37313 7.35742 8.37313 6.10448V3.26866C8.37313 2.01571 7.35742 1 6.10448 1Z" fill="#E7C6CF" stroke="#EDEDED" stroke-width="1.5" stroke-linecap="round" stroke-linejoin="round"/>
<path d="M6.10448 12.0596H3.26866C2.01571 12.0596 1 13.0753 1 14.3282V17.164C1 18.417 2.01571 19.4327 3.26866 19.4327H6.10448C7.35742 19.4327 8.37313 18.417 8.37313 17.164V14.3282C8.37313 13.0753 7.35742 12.0596 6.10448 12.0596Z" fill="#E7C6CF" stroke="#EDEDED" stroke-width="1.5" stroke-linecap="round" stroke-linejoin="round"/>
<path d="M17.4477 12.0596H14.6119C13.359 12.0596 12.3433 13.0753 12.3433 14.3282V17.164C12.3433 18.417 13.359 19.4327 14.6119 19.4327H17.4477C18.7007 19.4327 19.7164 18.417 19.7164 17.164V14.3282C19.7164 13.0753 18.7007 12.0596 17.4477 12.0596Z" fill="#E7C6CF" stroke="#EDEDED" stroke-width="1.5" stroke-linecap="round" stroke-linejoin="round"/>
<path d="M17.7313 1H14.8955C13.6425 1 12.6268 2.01571 12.6268 3.26866V6.10448C12.6268 7.35742 13.6425 8.37313 14.8955 8.37313H17.7313C18.9843 8.37313 20 7.35742 20 6.10448V3.26866C20 2.01571 18.9843 1 17.7313 1Z" fill="#E7C6CF" stroke="#EDEDED" stroke-width="1.5" stroke-linecap="round" stroke-linejoin="round"/>
</svg>
