<svg width="21" height="19" viewBox="0 0 21 19" fill="none" xmlns="http://www.w3.org/2000/svg">
<path d="M8.77273 2.7H20M8.77273 2.7C8.77273 3.15087 8.59075 3.58327 8.26682 3.90208C7.94289 4.22089 7.50356 4.4 7.04545 4.4C6.58735 4.4 6.14801 4.22089 5.82409 3.90208C5.50016 3.58327 5.31818 3.15087 5.31818 2.7M8.77273 2.7C8.77273 2.24913 8.59075 1.81673 8.26682 1.49792C7.94289 1.17911 7.50356 1 7.04545 1C6.58735 1 6.14801 1.17911 5.82409 1.49792C5.50016 1.81673 5.31818 2.24913 5.31818 2.7M5.31818 2.7H1M8.77273 16.3H20M8.77273 16.3C8.77273 16.7509 8.59075 17.1833 8.26682 17.5021C7.94289 17.8209 7.50356 18 7.04545 18C6.58735 18 6.14801 17.8209 5.82409 17.5021C5.50016 17.1833 5.31818 16.7509 5.31818 16.3M8.77273 16.3C8.77273 15.8491 8.59075 15.4167 8.26682 15.0979C7.94289 14.7791 7.50356 14.6 7.04545 14.6C6.58735 14.6 6.14801 14.7791 5.82409 15.0979C5.50016 15.4167 5.31818 15.8491 5.31818 16.3M5.31818 16.3H1M15.6818 9.5H20M15.6818 9.5C15.6818 9.95087 15.4998 10.3833 15.1759 10.7021C14.852 11.0209 14.4126 11.2 13.9545 11.2C13.4964 11.2 13.0571 11.0209 12.7332 10.7021C12.4093 10.3833 12.2273 9.95087 12.2273 9.5M15.6818 9.5C15.6818 9.04913 15.4998 8.61673 15.1759 8.29792C14.852 7.97911 14.4126 7.8 13.9545 7.8C13.4964 7.8 13.0571 7.97911 12.7332 8.29792C12.4093 8.61673 12.2273 9.04913 12.2273 9.5M12.2273 9.5H1" stroke="#8F9591" stroke-width="1.5" stroke-linecap="round" stroke-linejoin="round"/>
</svg>
